<svg width="64" height="64" viewBox="0 0 64 64" xmlns="http://www.w3.org/2000/svg">
  <rect width="64" height="64" rx="14" fill="#0f1419"/>
  <rect x="17" y="17" width="30" height="30" rx="5" fill="#abc8e3"/>
  <line x1="23" y1="17" x2="23" y2="10" stroke="#abc8e3" stroke-width="2.2" stroke-linecap="round"/>
  <line x1="32" y1="17" x2="32" y2="10" stroke="#abc8e3" stroke-width="2.2" stroke-linecap="round"/>
  <line x1="41" y1="17" x2="41" y2="10" stroke="#abc8e3" stroke-width="2.2" stroke-linecap="round"/>
  <line x1="23" y1="47" x2="23" y2="54" stroke="#abc8e3" stroke-width="2.2" stroke-linecap="round"/>
  <line x1="32" y1="47" x2="32" y2="54" stroke="#abc8e3" stroke-width="2.2" stroke-linecap="round"/>
  <line x1="41" y1="47" x2="41" y2="54" stroke="#abc8e3" stroke-width="2.2" stroke-linecap="round"/>
  <line x1="17" y1="23" x2="10" y2="23" stroke="#abc8e3" stroke-width="2.2" stroke-linecap="round"/>
  <line x1="17" y1="32" x2="10" y2="32" stroke="#abc8e3" stroke-width="2.2" stroke-linecap="round"/>
  <line x1="17" y1="41" x2="10" y2="41" stroke="#abc8e3" stroke-width="2.2" stroke-linecap="round"/>
  <line x1="47" y1="23" x2="54" y2="23" stroke="#abc8e3" stroke-width="2.2" stroke-linecap="round"/>
  <line x1="47" y1="32" x2="54" y2="32" stroke="#abc8e3" stroke-width="2.2" stroke-linecap="round"/>
  <line x1="47" y1="41" x2="54" y2="41" stroke="#abc8e3" stroke-width="2.2" stroke-linecap="round"/>
  <text x="32" y="39" text-anchor="middle" font-size="24" font-weight="700" fill="#0f1419" font-family="monospace">C</text>
</svg>
