<svg width="916" height="156" viewBox="0 0 916 156" fill="none" xmlns="http://www.w3.org/2000/svg">
<path d="M0 26.8041C0 12.0006 12.0266 0 26.8622 0H141.295C156.131 0 168.157 12.0006 168.157 26.8041V129.196C168.157 143.999 156.131 156 141.295 156H26.8622C12.0266 156 0 143.999 0 129.196V26.8041Z" fill="#050505"/>
<path d="M16.1173 30.0206C16.1173 18.1778 25.7386 8.57732 37.607 8.57732H129.476C141.344 8.57732 150.965 18.1778 150.965 30.0206V113.649C150.965 125.492 141.344 135.093 129.476 135.093H37.607C25.7386 135.093 16.1173 125.492 16.1173 113.649V30.0206Z" fill="#E5E4E2"/>
<path d="M87.7192 97.8516L79.2198 75.0786H49.1573L40.7629 97.8516H29.5878L58.8633 20.9992H69.881L98.9992 97.8516H87.7192ZM76.2293 65.76L68.1497 43.1964C67.9048 42.4285 67.5201 41.2768 66.9954 39.7411C66.5058 38.2055 65.9986 36.6175 65.474 34.9771C64.9843 33.3368 64.582 31.9756 64.2673 30.8937C63.9175 32.3246 63.5153 33.8428 63.0606 35.4483C62.6059 37.0188 62.1512 38.5021 61.6965 39.8982C61.2767 41.2593 60.927 42.3587 60.6472 43.1964L52.4626 65.76H76.2293Z" fill="#050505"/>
<path d="M186.961 26.8041C186.961 12.0006 198.987 0 213.823 0H328.256C343.091 0 355.118 12.0006 355.118 26.8041V129.196C355.118 143.999 343.091 156 328.256 156H213.823C198.987 156 186.961 143.999 186.961 129.196V26.8041Z" fill="#050505"/>
<path d="M203.078 30.0206C203.078 18.1778 212.699 8.57732 224.568 8.57732H316.436C328.305 8.57732 337.926 18.1778 337.926 30.0206V113.649C337.926 125.492 328.305 135.093 316.436 135.093H224.568C212.699 135.093 203.078 125.492 203.078 113.649V30.0206Z" fill="#E5E4E2"/>
<path d="M269.906 97.8516H226.832V21.3133H269.906V30.5272H237.587V53.3003H267.964V62.4095H237.587V88.5854H269.906V97.8516Z" fill="#050505"/>
<path d="M373.921 26.8041C373.921 12.0006 385.948 0 400.784 0H515.216C530.052 0 542.079 12.0006 542.079 26.8041V129.196C542.079 143.999 530.052 156 515.216 156H400.784C385.948 156 373.921 143.999 373.921 129.196V26.8041Z" fill="#050505"/>
<path d="M390.039 30.0206C390.039 18.1778 399.66 8.57732 411.528 8.57732H503.397C515.266 8.57732 524.887 18.1778 524.887 30.0206V113.649C524.887 125.492 515.266 135.093 503.397 135.093H411.528C399.66 135.093 390.039 125.492 390.039 113.649V30.0206Z" fill="#E5E4E2"/>
<path d="M446.531 29.4802C442.578 29.4802 439.028 30.1782 435.88 31.5743C432.767 32.9354 430.127 34.9422 427.958 37.5947C425.789 40.2123 424.128 43.3709 422.974 47.0704C421.82 50.7699 421.242 54.9406 421.242 59.5825C421.242 65.76 422.152 71.0999 423.971 75.6021C425.824 80.1044 428.605 83.577 432.313 86.0201C436.02 88.4632 440.69 89.6848 446.321 89.6848C449.679 89.6848 452.879 89.3881 455.922 88.7948C459 88.1665 462.06 87.3638 465.103 86.3866V95.6005C462.165 96.7173 459.122 97.5375 455.974 98.061C452.861 98.6195 449.206 98.8987 445.009 98.8987C437.174 98.8987 430.651 97.2758 425.44 94.03C420.263 90.7841 416.398 86.2295 413.845 80.3661C411.292 74.4678 410.015 67.5225 410.015 59.5301C410.015 53.7365 410.819 48.449 412.428 43.6675C414.037 38.8512 416.398 34.6979 419.511 31.2078C422.624 27.6828 426.436 24.9779 430.948 23.0933C435.495 21.1737 440.724 20.2139 446.636 20.2139C450.483 20.2139 454.226 20.6327 457.863 21.4704C461.536 22.2731 464.911 23.4074 467.989 24.8732L464.002 33.8254C461.448 32.6736 458.703 31.6615 455.765 30.789C452.861 29.9164 449.783 29.4802 446.531 29.4802Z" fill="#050505"/>
<path d="M560.882 26.8041C560.882 12.0006 572.909 0 587.744 0H702.177C717.013 0 729.039 12.0006 729.039 26.8041V129.196C729.039 143.999 717.013 156 702.177 156H587.744C572.909 156 560.882 143.999 560.882 129.196V26.8041Z" fill="#050505"/>
<path d="M576.999 30.0206C576.999 18.1778 586.621 8.57732 598.489 8.57732H690.358C702.226 8.57732 711.848 18.1778 711.848 30.0206V113.649C711.848 125.492 702.226 135.093 690.358 135.093H598.489C586.621 135.093 576.999 125.492 576.999 113.649V30.0206Z" fill="#E5E4E2"/>
<path d="M633.491 29.4802C629.539 29.4802 625.989 30.1782 622.841 31.5743C619.728 32.9354 617.087 34.9422 614.919 37.5947C612.75 40.2123 611.089 43.3709 609.934 47.0704C608.78 50.7699 608.203 54.9406 608.203 59.5825C608.203 65.76 609.112 71.0999 610.931 75.6021C612.785 80.1044 615.566 83.577 619.273 86.0201C622.981 88.4632 627.65 89.6848 633.281 89.6848C636.639 89.6848 639.84 89.3881 642.883 88.7948C645.961 88.1665 649.021 87.3638 652.064 86.3866V95.6005C649.126 96.7173 646.083 97.5375 642.935 98.061C639.822 98.6195 636.167 98.8987 631.97 98.8987C624.135 98.8987 617.612 97.2758 612.4 94.03C607.224 90.7841 603.359 86.2295 600.806 80.3661C598.252 74.4678 596.976 67.5225 596.976 59.5301C596.976 53.7365 597.78 48.449 599.389 43.6675C600.998 38.8512 603.359 34.6979 606.472 31.2078C609.585 27.6828 613.397 24.9779 617.909 23.0933C622.456 21.1737 627.685 20.2139 633.596 20.2139C637.444 20.2139 641.186 20.6327 644.824 21.4704C648.496 22.2731 651.872 23.4074 654.95 24.8732L650.962 33.8254C648.409 32.6736 645.663 31.6615 642.725 30.789C639.822 29.9164 636.744 29.4802 633.491 29.4802Z" fill="#050505"/>
<path d="M747.843 26.8041C747.843 12.0006 759.869 0 774.705 0H889.138C903.973 0 916 12.0006 916 26.8041V129.196C916 143.999 903.973 156 889.138 156H774.705C759.869 156 747.843 143.999 747.843 129.196V26.8041Z" fill="#050505"/>
<path d="M763.96 30.0206C763.96 18.1778 773.581 8.57732 785.45 8.57732H877.319C889.187 8.57732 898.808 18.1778 898.808 30.0206V113.649C898.808 125.492 889.187 135.093 877.319 135.093H785.45C773.581 135.093 763.96 125.492 763.96 113.649V30.0206Z" fill="#E5E4E2"/>
<path d="M787.714 97.8516V21.3133H798.469V97.8516H787.714Z" fill="#050505"/>
</svg>
