<svg width="581" height="99" viewBox="0 0 581 99" fill="none" xmlns="http://www.w3.org/2000/svg">
<path fill-rule="evenodd" clip-rule="evenodd" d="M17.0381 0C7.62823 0 0 7.61577 0 17.0103V81.9897C0 91.3842 7.62822 99 17.0381 99H89.6205C99.0304 99 106.659 91.3842 106.659 81.9897V17.0103C106.659 7.61578 99.0304 0 89.6205 0H17.0381ZM23.8534 5.4433C16.3255 5.4433 10.2229 11.5359 10.2229 19.0515V72.1237C10.2229 79.6393 16.3255 85.732 23.8534 85.732H82.1238C89.6517 85.732 95.7542 79.6393 95.7542 72.1237V19.0515C95.7542 11.5359 89.6517 5.4433 82.1238 5.4433H23.8534Z" fill="#050505"/>
<path d="M55.6385 62.0982L50.2475 47.646H31.1795L25.855 62.0982H18.7669L37.3358 13.3264H44.3241L62.7932 62.0982H55.6385ZM48.3507 41.7323L43.2259 27.4131C43.0706 26.9258 42.8266 26.1949 42.4938 25.2203C42.1832 24.2458 41.8616 23.238 41.5288 22.197C41.2182 21.156 40.9631 20.2922 40.7634 19.6056C40.5415 20.5137 40.2864 21.4772 39.998 22.496C39.7096 23.4927 39.4212 24.4341 39.1328 25.32C38.8666 26.1838 38.6447 26.8815 38.4672 27.4131L33.2759 41.7323H48.3507Z" fill="#050505"/>
<path fill-rule="evenodd" clip-rule="evenodd" d="M135.623 0C126.214 0 118.585 7.61577 118.585 17.0103V81.9897C118.585 91.3842 126.214 99 135.623 99H208.206C217.616 99 225.244 91.3842 225.244 81.9897V17.0103C225.244 7.61578 217.616 0 208.206 0H135.623ZM142.439 5.4433C134.911 5.4433 128.808 11.5359 128.808 19.0515V72.1237C128.808 79.6393 134.911 85.732 142.439 85.732H200.709C208.237 85.732 214.34 79.6393 214.34 72.1237V19.0515C214.34 11.5359 208.237 5.4433 200.709 5.4433H142.439Z" fill="#050505"/>
<path d="M171.196 62.0982H143.875V13.5257H171.196V19.373H150.697V33.8252H169.964V39.606H150.697V56.2176H171.196V62.0982Z" fill="#050505"/>
<path fill-rule="evenodd" clip-rule="evenodd" d="M254.209 0C244.799 0 237.171 7.61577 237.171 17.0103V81.9897C237.171 91.3842 244.799 99 254.209 99H326.791C336.201 99 343.829 91.3842 343.829 81.9897V17.0103C343.829 7.61578 336.201 0 326.791 0H254.209ZM261.024 5.4433C253.496 5.4433 247.394 11.5359 247.394 19.0515V72.1237C247.394 79.6393 253.496 85.732 261.024 85.732H319.294C326.822 85.732 332.925 79.6393 332.925 72.1237V19.0515C332.925 11.5359 326.822 5.4433 319.294 5.4433H261.024Z" fill="#050505"/>
<path d="M283.225 18.7086C280.718 18.7086 278.466 19.1516 276.47 20.0375C274.495 20.9013 272.82 22.1749 271.445 23.8582C270.069 25.5193 269.016 27.5238 268.284 29.8716C267.551 32.2194 267.185 34.8662 267.185 37.812C267.185 41.7323 267.762 45.1211 268.916 47.9783C270.092 50.8355 271.855 53.0393 274.207 54.5897C276.559 56.1401 279.52 56.9153 283.092 56.9153C285.222 56.9153 287.252 56.7271 289.182 56.3505C291.134 55.9519 293.075 55.4424 295.005 54.8223V60.6696C293.142 61.3783 291.212 61.8988 289.215 62.231C287.241 62.5854 284.922 62.7626 282.26 62.7626C277.291 62.7626 273.153 61.7327 269.848 59.6729C266.564 57.613 264.113 54.7226 262.493 51.0016C260.874 47.2584 260.064 42.8508 260.064 37.7787C260.064 34.102 260.574 30.7465 261.595 27.7121C262.615 24.6555 264.113 22.0198 266.087 19.8049C268.062 17.5679 270.48 15.8514 273.342 14.6553C276.226 13.4372 279.543 12.8281 283.292 12.8281C285.732 12.8281 288.106 13.0938 290.413 13.6254C292.743 14.1348 294.883 14.8547 296.836 15.7849L294.307 21.4661C292.687 20.7352 290.946 20.0929 289.082 19.5392C287.241 18.9854 285.288 18.7086 283.225 18.7086Z" fill="#050505"/>
<path fill-rule="evenodd" clip-rule="evenodd" d="M372.794 0C363.384 0 355.756 7.61577 355.756 17.0103V81.9897C355.756 91.3842 363.384 99 372.794 99H445.377C454.786 99 462.415 91.3842 462.415 81.9897V17.0103C462.415 7.61578 454.786 0 445.377 0H372.794ZM379.609 5.4433C372.081 5.4433 365.979 11.5359 365.979 19.0515V72.1237C365.979 79.6393 372.081 85.732 379.609 85.732H437.88C445.408 85.732 451.51 79.6393 451.51 72.1237V19.0515C451.51 11.5359 445.408 5.4433 437.88 5.4433H379.609Z" fill="#050505"/>
<path d="M401.811 18.7086C399.304 18.7086 397.052 19.1516 395.055 20.0375C393.081 20.9013 391.406 22.1749 390.03 23.8582C388.655 25.5193 387.601 27.5238 386.869 29.8716C386.137 32.2194 385.771 34.8662 385.771 37.812C385.771 41.7323 386.348 45.1211 387.501 47.9783C388.677 50.8355 390.441 53.0393 392.792 54.5897C395.144 56.1401 398.106 56.9153 401.677 56.9153C403.807 56.9153 405.837 56.7271 407.767 56.3505C409.719 55.9519 411.661 55.4424 413.591 54.8223V60.6696C411.727 61.3783 409.797 61.8988 407.801 62.231C405.826 62.5854 403.508 62.7626 400.845 62.7626C395.876 62.7626 391.739 61.7327 388.433 59.6729C385.15 57.613 382.698 54.7226 381.079 51.0016C379.459 47.2584 378.649 42.8508 378.649 37.7787C378.649 34.102 379.16 30.7465 380.18 27.7121C381.201 24.6555 382.698 22.0198 384.673 19.8049C386.647 17.5679 389.065 15.8514 391.927 14.6553C394.811 13.4372 398.128 12.8281 401.877 12.8281C404.317 12.8281 406.691 13.0938 408.998 13.6254C411.328 14.1348 413.469 14.8547 415.421 15.7849L412.892 21.4661C411.272 20.7352 409.531 20.0929 407.667 19.5392C405.826 18.9854 403.874 18.7086 401.811 18.7086Z" fill="#050505"/>
<path fill-rule="evenodd" clip-rule="evenodd" d="M491.379 0C481.97 0 474.341 7.61577 474.341 17.0103V81.9897C474.341 91.3842 481.97 99 491.379 99H563.962C573.372 99 581 91.3842 581 81.9897V17.0103C581 7.61578 573.372 0 563.962 0H491.379ZM498.195 5.4433C490.667 5.4433 484.564 11.5359 484.564 19.0515V72.1237C484.564 79.6393 490.667 85.732 498.195 85.732H556.465C563.993 85.732 570.096 79.6393 570.096 72.1237V19.0515C570.096 11.5359 563.993 5.4433 556.465 5.4433H498.195Z" fill="#050505"/>
<path d="M499.631 62.0982V13.5257H506.453V62.0982H499.631Z" fill="#050505"/>
</svg>
