<svg width="916" height="156" viewBox="0 0 916 156" fill="none" xmlns="http://www.w3.org/2000/svg">
<path fill-rule="evenodd" clip-rule="evenodd" d="M26.8622 0C12.0266 0 0 12.0006 0 26.8041V129.196C0 143.999 12.0266 156 26.8622 156H141.295C156.131 156 168.157 143.999 168.157 129.196V26.8041C168.157 12.0006 156.131 0 141.295 0H26.8622ZM37.607 8.57732C25.7386 8.57732 16.1173 18.1778 16.1173 30.0206V113.649C16.1173 125.492 25.7386 135.093 37.607 135.093H129.476C141.344 135.093 150.965 125.492 150.965 113.649V30.0206C150.965 18.1778 141.344 8.57732 129.476 8.57732H37.607Z" fill="#E5E4E2"/>
<path d="M87.7192 97.8516L79.2198 75.0786H49.1573L40.7629 97.8516H29.5878L58.8633 20.9992H69.881L98.9992 97.8516H87.7192ZM76.2293 65.76L68.1497 43.1964C67.9048 42.4285 67.5201 41.2768 66.9954 39.7411C66.5058 38.2055 65.9986 36.6175 65.474 34.9771C64.9843 33.3368 64.582 31.9756 64.2673 30.8937C63.9175 32.3246 63.5152 33.8428 63.0606 35.4483C62.6059 37.0188 62.1512 38.5021 61.6965 39.8982C61.2767 41.2593 60.927 42.3587 60.6472 43.1964L52.4626 65.76H76.2293Z" fill="#E5E4E2"/>
<path fill-rule="evenodd" clip-rule="evenodd" d="M213.823 0C198.987 0 186.961 12.0006 186.961 26.8041V129.196C186.961 143.999 198.987 156 213.823 156H328.256C343.091 156 355.118 143.999 355.118 129.196V26.8041C355.118 12.0006 343.091 0 328.256 0H213.823ZM224.568 8.57732C212.699 8.57732 203.078 18.1778 203.078 30.0206V113.649C203.078 125.492 212.699 135.093 224.568 135.093H316.436C328.305 135.093 337.926 125.492 337.926 113.649V30.0206C337.926 18.1778 328.305 8.57732 316.436 8.57732H224.568Z" fill="#E5E4E2"/>
<path d="M269.906 97.8516H226.832V21.3133H269.906V30.5272H237.587V53.3003H267.964V62.4095H237.587V88.5854H269.906V97.8516Z" fill="#E5E4E2"/>
<path fill-rule="evenodd" clip-rule="evenodd" d="M400.784 0C385.948 0 373.921 12.0006 373.921 26.8041V129.196C373.921 143.999 385.948 156 400.784 156H515.216C530.052 156 542.079 143.999 542.079 129.196V26.8041C542.079 12.0006 530.052 0 515.216 0H400.784ZM411.528 8.57732C399.66 8.57732 390.039 18.1778 390.039 30.0206V113.649C390.039 125.492 399.66 135.093 411.528 135.093H503.397C515.266 135.093 524.887 125.492 524.887 113.649V30.0206C524.887 18.1778 515.266 8.57732 503.397 8.57732H411.528Z" fill="#E5E4E2"/>
<path d="M446.531 29.4802C442.578 29.4802 439.028 30.1782 435.88 31.5743C432.767 32.9354 430.127 34.9422 427.958 37.5947C425.789 40.2123 424.128 43.3709 422.974 47.0704C421.82 50.7699 421.242 54.9406 421.242 59.5825C421.242 65.76 422.152 71.0999 423.971 75.6021C425.824 80.1044 428.605 83.577 432.313 86.0201C436.02 88.4632 440.69 89.6848 446.321 89.6848C449.679 89.6848 452.879 89.3881 455.922 88.7948C459 88.1666 462.06 87.3638 465.103 86.3866V95.6005C462.165 96.7174 459.122 97.5375 455.974 98.0611C452.861 98.6195 449.206 98.8987 445.009 98.8987C437.174 98.8987 430.651 97.2758 425.44 94.03C420.263 90.7841 416.398 86.2295 413.845 80.3661C411.292 74.4678 410.015 67.5225 410.015 59.5301C410.015 53.7365 410.819 48.449 412.428 43.6675C414.037 38.8512 416.398 34.6979 419.511 31.2078C422.624 27.6828 426.436 24.9779 430.948 23.0933C435.495 21.1737 440.724 20.2139 446.636 20.2139C450.483 20.2139 454.226 20.6327 457.863 21.4704C461.536 22.2731 464.911 23.4074 467.989 24.8732L464.002 33.8254C461.448 32.6736 458.703 31.6615 455.764 30.789C452.861 29.9165 449.783 29.4802 446.531 29.4802Z" fill="#E5E4E2"/>
<path fill-rule="evenodd" clip-rule="evenodd" d="M587.744 0C572.909 0 560.882 12.0006 560.882 26.8041V129.196C560.882 143.999 572.909 156 587.744 156H702.177C717.013 156 729.039 143.999 729.039 129.196V26.8041C729.039 12.0006 717.013 0 702.177 0H587.744ZM598.489 8.57732C586.621 8.57732 576.999 18.1778 576.999 30.0206V113.649C576.999 125.492 586.621 135.093 598.489 135.093H690.358C702.226 135.093 711.848 125.492 711.848 113.649V30.0206C711.848 18.1778 702.226 8.57732 690.358 8.57732H598.489Z" fill="#E5E4E2"/>
<path d="M633.491 29.4802C629.539 29.4802 625.989 30.1782 622.841 31.5743C619.728 32.9354 617.087 34.9422 614.919 37.5947C612.75 40.2123 611.089 43.3709 609.934 47.0704C608.78 50.7699 608.203 54.9406 608.203 59.5825C608.203 65.76 609.112 71.0999 610.931 75.6021C612.785 80.1044 615.566 83.577 619.273 86.0201C622.981 88.4632 627.65 89.6848 633.281 89.6848C636.639 89.6848 639.84 89.3881 642.883 88.7948C645.961 88.1666 649.021 87.3638 652.064 86.3866V95.6005C649.126 96.7174 646.083 97.5375 642.935 98.0611C639.822 98.6195 636.167 98.8987 631.97 98.8987C624.135 98.8987 617.612 97.2758 612.4 94.03C607.224 90.7841 603.359 86.2295 600.805 80.3661C598.252 74.4678 596.976 67.5225 596.976 59.5301C596.976 53.7365 597.78 48.449 599.389 43.6675C600.998 38.8512 603.359 34.6979 606.472 31.2078C609.585 27.6828 613.397 24.9779 617.909 23.0933C622.456 21.1737 627.685 20.2139 633.596 20.2139C637.444 20.2139 641.186 20.6327 644.824 21.4704C648.496 22.2731 651.872 23.4074 654.95 24.8732L650.962 33.8254C648.409 32.6736 645.663 31.6615 642.725 30.789C639.822 29.9165 636.744 29.4802 633.491 29.4802Z" fill="#E5E4E2"/>
<path fill-rule="evenodd" clip-rule="evenodd" d="M774.705 0C759.869 0 747.843 12.0006 747.843 26.8041V129.196C747.843 143.999 759.869 156 774.705 156H889.138C903.973 156 916 143.999 916 129.196V26.8041C916 12.0006 903.973 0 889.138 0H774.705ZM785.45 8.57732C773.581 8.57732 763.96 18.1778 763.96 30.0206V113.649C763.96 125.492 773.581 135.093 785.45 135.093H877.318C889.187 135.093 898.808 125.492 898.808 113.649V30.0206C898.808 18.1778 889.187 8.57732 877.318 8.57732H785.45Z" fill="#E5E4E2"/>
<path d="M787.714 97.8516V21.3133H798.469V97.8516H787.714Z" fill="#E5E4E2"/>
</svg>
